# xmcd
#
# Track frame offsets: 
#        150
#        18077
#        32312
#        49961
#        65372
#        84008
#        103227
#        120225
#        138193
#        153444
#        170450
#        185711
#
# Disc length: 2652 seconds
#
# Revision: 0
# Processed by: cddbd v1.5.2PL0 Copyright (c) Steve Scherf et al.
# Submitted via: ExactAudioCopy v1.0b3
#
DISCID=8b0a5a0c
DTITLE=藤圭子 - さいはての女 演歌の星★藤圭子 Blu-spec CD2 MHCL-30193
DYEAR=2013
DGENRE=Blues
TTITLE0=さいはての女
TTITLE1=女は恋に生きてゆく
TTITLE2=女は悲しい花でしょうか
TTITLE3=大阪女のブルース
TTITLE4=長崎の女
TTITLE5=涙ひとしずく
TTITLE6=恋仁義 
TTITLE7=盛り場流し唄 
TTITLE8=女の園
TTITLE9=旭川の女
TTITLE10=みちのく小唄
TTITLE11=東京花ものがたり
EXTD=
EXTT0=
EXTT1=
EXTT2=
EXTT3=
EXTT4=
EXTT5=
EXTT6=
EXTT7=
EXTT8=
EXTT9=
EXTT10=
EXTT11=
PLAYORDER=
